<svg width="289" height="126" viewBox="0 0 289 126" fill="none" xmlns="http://www.w3.org/2000/svg">
<circle cx="20" cy="20" r="20" fill="#F7CC47"/>
<rect y="54" width="75" height="14" rx="2" fill="#F5DED1"/>
<rect y="76" width="126" height="6" rx="3" fill="#F5DED1"/>
<path fill-rule="evenodd" clip-rule="evenodd" d="M217.5 52.6701C210.456 53.8968 203.32 54.5195 196.169 54.5313V54.5305C195.428 54.5419 195.211 55.7467 195.989 55.8639C204.225 56.974 212.593 56.6291 220.709 54.8451C235.131 51.8586 248.693 45.6665 260.388 36.729C266.279 32.2616 271.639 27.1352 276.362 21.4502C278.869 18.3734 281.184 15.1495 283.295 11.7971L283.311 11.7192C283.728 9.64097 284.151 7.56589 284.588 5.49325C284.873 5.45392 285.158 5.41716 285.444 5.38299C286.916 5.21202 287.002 2.98777 285.444 3.02098C285.334 3.02275 285.224 3.02507 285.114 3.02794C285.213 2.56752 285.313 2.1072 285.415 1.64699L288.292 2.85704C286.783 5.92459 285.115 8.90857 283.295 11.7971L282.361 16.4845C282.504 16.2424 282.766 16.0874 283.057 16.0874C283.413 16.0874 283.727 16.3194 283.831 16.659C284.125 17.8426 284.29 19.0179 284.458 20.2071C284.514 20.6076 284.571 21.0098 284.633 21.4143L281.41 21.8509C281.436 22.5523 281.912 23.1829 282.621 23.3781C283.476 23.6133 284.364 23.1326 284.633 22.2893C285.112 20.6398 285.463 18.9561 285.685 17.253L286.622 12.4075C287.265 9.10529 287.874 5.79624 288.451 2.48038C288.642 1.72289 288.256 0.938679 287.539 0.626907C286.815 0.316608 285.973 0.592167 285.574 1.26992C285.301 1.86353 285.02 2.45362 284.733 3.04008C282.657 3.11833 280.593 3.39326 278.568 3.86148C277.401 4.14581 276.254 4.50964 275.136 4.95044C274.146 5.20173 273.251 5.73449 272.557 6.48425C272.399 6.75651 272.376 7.0866 272.495 7.37814C272.614 7.66968 272.861 7.88979 273.164 7.97419C274.148 8.01411 275.128 7.82375 276.026 7.41823C276.965 7.13095 277.917 6.8863 278.871 6.64137C278.95 6.62099 279.03 6.6006 279.109 6.58019C280.519 6.21336 281.945 5.91151 283.382 5.67549C280.346 11.3437 276.652 16.6419 272.371 21.4588C262.891 32.2339 251.132 40.7733 237.943 46.4605C231.383 49.2857 224.525 51.3685 217.5 52.6701ZM281.896 18.5242C282.016 17.9352 282.152 17.3494 282.304 16.7673L282.361 16.4845C282.329 16.5386 282.303 16.597 282.284 16.659C282.126 17.2819 282.003 17.9026 281.896 18.5242ZM281.896 18.5242C281.672 19.6244 281.503 20.7355 281.392 21.8534L281.41 21.8509C281.405 21.7073 281.419 21.5607 281.453 21.4143C281.515 21.0215 281.572 20.631 281.63 20.242C281.714 19.667 281.798 19.0952 281.896 18.5242Z" fill="#EF6D58"/>
<rect y="120" width="289" height="6" rx="3" fill="#F4E4FF"/>
<rect y="120" width="113" height="6" rx="3" fill="#B550F8"/>
</svg>
