<svg width="436" height="274" viewBox="0 0 436 274" fill="none" xmlns="http://www.w3.org/2000/svg">
<g filter="url(#filter0_d_0_304)">
<g filter="url(#filter1_d_0_304)">
<rect x="49" y="25" width="338" height="176" rx="6" fill="white"/>
<rect x="49" y="25" width="338" height="176" rx="6" stroke="black"/>
</g>
<circle cx="93" cy="69" r="20" fill="#F7CC47" stroke="black"/>
<rect x="73" y="103" width="75" height="14" rx="2" fill="#F5DED1" stroke="black"/>
<rect x="73" y="125" width="126" height="6" rx="3" fill="#F5DED1" stroke="black"/>
<path fill-rule="evenodd" clip-rule="evenodd" d="M290.5 101.67C283.456 102.897 276.32 103.52 269.169 103.531V103.53C268.428 103.542 268.211 104.747 268.989 104.864C277.225 105.974 285.593 105.629 293.709 103.845C308.131 100.859 321.693 94.6665 333.388 85.729C339.279 81.2616 344.639 76.1352 349.362 70.4502C351.869 67.3734 354.184 64.1495 356.295 60.7971L356.311 60.7192C356.728 58.641 357.151 56.5659 357.588 54.4933C357.873 54.4539 358.158 54.4172 358.444 54.383C359.916 54.212 360.002 51.9878 358.444 52.021C358.334 52.0227 358.224 52.0251 358.114 52.0279C358.213 51.5675 358.313 51.1072 358.415 50.647L361.292 51.857C359.783 54.9246 358.115 57.9086 356.295 60.7971L355.361 65.4845C355.504 65.2424 355.766 65.0874 356.057 65.0874C356.413 65.0874 356.727 65.3194 356.831 65.659C357.125 66.8426 357.29 68.0179 357.458 69.2071C357.514 69.6076 357.571 70.0098 357.633 70.4143L354.41 70.8509C354.436 71.5523 354.912 72.1829 355.621 72.3781C356.476 72.6133 357.364 72.1326 357.633 71.2893C358.112 69.6398 358.463 67.9561 358.685 66.253L359.622 61.4075C360.265 58.1053 360.874 54.7962 361.451 51.4804C361.642 50.7229 361.256 49.9387 360.539 49.6269C359.815 49.3166 358.973 49.5922 358.574 50.2699C358.301 50.8635 358.02 51.4536 357.733 52.0401C355.657 52.1183 353.593 52.3933 351.568 52.8615C350.401 53.1458 349.254 53.5096 348.136 53.9504C347.146 54.2017 346.251 54.7345 345.557 55.4842C345.399 55.7565 345.376 56.0866 345.495 56.3781C345.614 56.6697 345.861 56.8898 346.164 56.9742C347.148 57.0141 348.128 56.8237 349.026 56.4182C349.965 56.1309 350.917 55.8863 351.871 55.6414C351.95 55.621 352.03 55.6006 352.109 55.5802C353.519 55.2134 354.945 54.9115 356.382 54.6755C353.346 60.3437 349.652 65.6419 345.371 70.4588C335.891 81.2339 324.132 89.7733 310.943 95.4605C304.383 98.2857 297.525 100.369 290.5 101.67ZM354.896 67.5242C355.016 66.9352 355.152 66.3494 355.304 65.7673L355.361 65.4845C355.329 65.5386 355.303 65.597 355.284 65.659C355.126 66.2819 355.003 66.9026 354.896 67.5242ZM354.896 67.5242C354.672 68.6244 354.503 69.7355 354.392 70.8534L354.41 70.8509C354.405 70.7073 354.419 70.5607 354.453 70.4143C354.515 70.0215 354.572 69.631 354.63 69.242C354.714 68.667 354.798 68.0952 354.896 67.5242Z" fill="#EF6D58"/>
<path d="M269.169 103.531L269.17 104.031L268.669 104.032V103.531H269.169ZM290.5 101.67L290.591 102.162L290.586 102.163L290.5 101.67ZM269.169 103.53L269.161 103.031L269.669 103.023V103.53H269.169ZM268.989 104.864L268.922 105.359L268.914 105.358L268.989 104.864ZM293.709 103.845L293.602 103.357L293.608 103.355L293.709 103.845ZM333.388 85.729L333.084 85.3318L333.086 85.3306L333.388 85.729ZM349.362 70.4502L349.749 70.7661L349.746 70.7697L349.362 70.4502ZM356.311 60.7192L355.821 60.6214L355.821 60.6208L356.311 60.7192ZM357.588 54.4933L357.099 54.3902L357.171 54.0461L357.519 53.9979L357.588 54.4933ZM358.444 54.383L358.384 53.8865L358.386 53.8863L358.444 54.383ZM358.444 52.021L358.454 52.5209L358.452 52.5209L358.444 52.021ZM358.114 52.0279L358.127 52.5278L357.49 52.5444L357.625 51.9223L358.114 52.0279ZM358.415 50.647L357.926 50.5396L358.055 49.9534L358.608 50.1861L358.415 50.647ZM361.292 51.857L361.486 51.3961L361.975 51.6018L361.74 52.0778L361.292 51.857ZM356.831 65.659L357.309 65.5129L357.313 65.5256L357.316 65.5385L356.831 65.659ZM357.458 69.2071L357.953 69.1373L357.953 69.1373L357.458 69.2071ZM357.633 70.4143L358.127 70.3387L358.204 70.8415L357.7 70.9097L357.633 70.4143ZM355.621 72.3781L355.489 72.8602L355.489 72.8602L355.621 72.3781ZM357.633 71.2893L358.113 71.4288L358.109 71.4412L357.633 71.2893ZM358.685 66.253L358.189 66.1886L358.191 66.1733L358.194 66.1581L358.685 66.253ZM359.622 61.4075L359.131 61.3126L359.131 61.312L359.622 61.4075ZM361.451 51.4804L360.959 51.3947L360.962 51.3763L360.967 51.3581L361.451 51.4804ZM360.539 49.6269L360.736 49.1674L360.738 49.1683L360.539 49.6269ZM358.574 50.2699L358.12 50.0607L358.131 50.0379L358.143 50.0163L358.574 50.2699ZM357.733 52.0401L358.182 52.2601L358.05 52.5285L357.752 52.5397L357.733 52.0401ZM351.568 52.8615L351.45 52.3756L351.455 52.3743L351.568 52.8615ZM348.136 53.9504L348.32 54.4156L348.29 54.4272L348.259 54.4351L348.136 53.9504ZM345.557 55.4842L345.125 55.2333L345.153 55.1854L345.19 55.1448L345.557 55.4842ZM345.495 56.3781L345.032 56.5667L345.032 56.5667L345.495 56.3781ZM346.164 56.9742L346.144 57.4738L346.086 57.4714L346.03 57.4559L346.164 56.9742ZM349.026 56.4182L348.82 55.9626L348.849 55.9494L348.88 55.9401L349.026 56.4182ZM351.871 55.6414L351.747 55.1571L351.747 55.1571L351.871 55.6414ZM352.109 55.5802L352.235 56.0641L352.234 56.0644L352.109 55.5802ZM356.382 54.6755L356.301 54.1821L357.301 54.0178L356.823 54.9116L356.382 54.6755ZM345.371 70.4588L344.996 70.1285L344.997 70.1267L345.371 70.4588ZM310.943 95.4605L311.141 95.9196L311.141 95.9197L310.943 95.4605ZM355.304 65.7673L355.795 65.8651L355.792 65.8794L355.788 65.8936L355.304 65.7673ZM355.284 65.659L354.799 65.5362L354.802 65.5244L354.806 65.5129L355.284 65.659ZM354.392 70.8534L354.459 71.3489L353.831 71.4339L353.894 70.8036L354.392 70.8534ZM354.453 70.4143L354.947 70.4923L354.944 70.5105L354.94 70.5284L354.453 70.4143ZM354.63 69.242L355.124 69.3148L355.124 69.3148L354.63 69.242ZM269.168 103.031C276.29 103.02 283.398 102.399 290.414 101.177L290.586 102.163C283.514 103.394 276.349 104.019 269.17 104.031L269.168 103.031ZM269.669 103.53V103.531H268.669V103.53H269.669ZM268.914 105.358C268.578 105.308 268.313 105.127 268.156 104.864C268.007 104.615 267.977 104.33 268.016 104.08C268.09 103.602 268.475 103.041 269.161 103.031L269.177 104.03C269.137 104.031 269.108 104.044 269.079 104.074C269.044 104.11 269.014 104.169 269.004 104.235C268.993 104.302 269.008 104.341 269.014 104.351C269.016 104.355 269.017 104.355 269.018 104.356C269.02 104.357 269.032 104.365 269.064 104.37L268.914 105.358ZM293.816 104.333C285.643 106.13 277.216 106.477 268.922 105.359L269.056 104.368C277.234 105.471 285.542 105.128 293.602 103.357L293.816 104.333ZM333.691 86.1263C321.937 95.1094 308.306 101.333 293.81 104.335L293.608 103.355C307.956 100.384 321.449 94.2237 333.084 85.3318L333.691 86.1263ZM349.746 70.7697C344.999 76.4841 339.612 81.6369 333.69 86.1274L333.086 85.3306C338.947 80.8862 344.279 75.7864 348.977 70.1307L349.746 70.7697ZM356.719 61.0636C354.596 64.4331 352.269 67.6735 349.749 70.7661L348.974 70.1344C351.468 67.0732 353.772 63.8659 355.872 60.5307L356.719 61.0636ZM355.805 60.6993L355.821 60.6214L356.801 60.817L356.786 60.8949L355.805 60.6993ZM355.821 60.6208C356.238 58.5416 356.662 56.4649 357.099 54.3902L358.077 54.5963C357.641 56.6669 357.218 58.7404 356.801 60.8176L355.821 60.6208ZM358.503 54.8794C358.22 54.9133 357.938 54.9496 357.656 54.9886L357.519 53.9979C357.807 53.9582 358.096 53.9211 358.384 53.8865L358.503 54.8794ZM358.433 51.5211C358.95 51.5101 359.382 51.6902 359.678 52.0154C359.965 52.3315 360.087 52.7425 360.08 53.1348C360.065 53.9137 359.528 54.7604 358.501 54.8796L358.386 53.8863C358.831 53.8346 359.073 53.4837 359.08 53.116C359.083 52.9351 359.026 52.7855 358.938 52.6886C358.858 52.6007 358.716 52.5153 358.454 52.5209L358.433 51.5211ZM358.101 51.5281C358.212 51.5252 358.324 51.5228 358.436 51.521L358.452 52.5209C358.343 52.5227 358.235 52.5249 358.127 52.5278L358.101 51.5281ZM357.625 51.9223C357.725 51.4613 357.825 51.0004 357.926 50.5396L358.903 50.7543C358.802 51.214 358.702 51.6737 358.602 52.1336L357.625 51.9223ZM358.608 50.1861L361.486 51.3961L361.098 52.3179L358.221 51.1079L358.608 50.1861ZM361.74 52.0778C360.224 55.161 358.547 58.1603 356.719 61.0636L355.872 60.5307C357.682 57.6569 359.342 54.6882 360.843 51.6363L361.74 52.0778ZM354.87 65.3867L355.805 60.6993L356.786 60.8949L355.851 65.5823L354.87 65.3867ZM354.93 65.2302C355.162 64.8382 355.587 64.5874 356.057 64.5874V65.5874C355.946 65.5874 355.846 65.6466 355.791 65.7388L354.93 65.2302ZM356.057 64.5874C356.632 64.5874 357.141 64.9625 357.309 65.5129L356.353 65.8052C356.313 65.6763 356.194 65.5874 356.057 65.5874V64.5874ZM357.316 65.5385C357.617 66.7512 357.786 67.952 357.953 69.1373L356.963 69.2769C356.795 68.0839 356.632 66.934 356.345 65.7795L357.316 65.5385ZM357.953 69.1373C358.01 69.5383 358.066 69.9375 358.127 70.3387L357.139 70.4899C357.076 70.082 357.019 69.677 356.963 69.2769L357.953 69.1373ZM357.7 70.9097L354.477 71.3464L354.343 70.3554L357.566 69.9188L357.7 70.9097ZM355.489 72.8602C354.564 72.6058 353.944 71.7839 353.911 70.8692L354.91 70.8325C354.928 71.3207 355.26 71.76 355.754 71.896L355.489 72.8602ZM358.109 71.4412C357.759 72.5407 356.601 73.1663 355.489 72.8602L355.754 71.896C356.351 72.0602 356.969 71.7244 357.157 71.1375L358.109 71.4412ZM359.181 66.3175C358.956 68.0459 358.599 69.7546 358.113 71.4287L357.153 71.15C357.624 69.525 357.971 67.8663 358.189 66.1886L359.181 66.3175ZM360.113 61.5025L359.176 66.348L358.194 66.1581L359.131 61.3126L360.113 61.5025ZM361.944 51.5661C361.366 54.8852 360.756 58.1975 360.113 61.503L359.131 61.312C359.773 58.013 360.382 54.7072 360.959 51.3947L361.944 51.5661ZM360.738 49.1683C361.68 49.5775 362.187 50.6072 361.936 51.6026L360.967 51.3581C361.098 50.8386 360.833 50.2999 360.339 50.0855L360.738 49.1683ZM358.143 50.0163C358.67 49.1213 359.781 48.7581 360.736 49.1674L360.342 50.0864C359.849 49.8752 359.276 50.0631 359.005 50.5236L358.143 50.0163ZM357.284 51.8201C357.57 51.2372 357.848 50.6507 358.12 50.0607L359.028 50.4792C358.753 51.0764 358.471 51.6701 358.182 52.2601L357.284 51.8201ZM351.455 52.3743C353.511 51.899 355.607 51.6199 357.714 51.5404L357.752 52.5397C355.707 52.6168 353.675 52.8875 351.681 53.3486L351.455 52.3743ZM347.953 53.4853C349.092 53.0361 350.26 52.6654 351.45 52.3757L351.686 53.3473C350.541 53.6262 349.416 53.9831 348.32 54.4156L347.953 53.4853ZM345.19 55.1448C345.949 54.3241 346.93 53.7409 348.013 53.4658L348.259 54.4351C347.363 54.6626 346.552 55.1449 345.924 55.8237L345.19 55.1448ZM345.032 56.5667C344.855 56.1318 344.889 55.6394 345.125 55.2333L345.99 55.7352C345.909 55.8736 345.898 56.0414 345.958 56.1896L345.032 56.5667ZM346.03 57.4559C345.578 57.33 345.209 57.0016 345.032 56.5667L345.958 56.1896C346.018 56.3377 346.144 56.4496 346.298 56.4925L346.03 57.4559ZM349.232 56.8739C348.263 57.3114 347.206 57.5169 346.144 57.4738L346.184 56.4746C347.091 56.5114 347.993 56.336 348.82 55.9626L349.232 56.8739ZM351.995 56.1257C351.04 56.3711 350.098 56.613 349.172 56.8963L348.88 55.9401C349.831 55.6489 350.795 55.4015 351.747 55.1571L351.995 56.1257ZM352.234 56.0644C352.154 56.0849 352.075 56.1053 351.995 56.1257L351.747 55.1571C351.826 55.1367 351.905 55.1163 351.985 55.0959L352.234 56.0644ZM356.463 55.1689C355.041 55.4024 353.63 55.7011 352.235 56.0641L351.983 55.0963C353.408 54.7256 354.849 54.4206 356.301 54.1821L356.463 55.1689ZM344.997 70.1267C349.252 65.3391 352.924 60.0732 355.941 54.4394L356.823 54.9116C353.768 60.6143 350.051 65.9447 345.745 70.7909L344.997 70.1267ZM310.745 95.0014C323.866 89.3435 335.564 80.8481 344.996 70.1285L345.747 70.7891C336.217 81.6198 324.398 90.2032 311.141 95.9196L310.745 95.0014ZM290.409 101.178C297.398 99.8837 304.219 97.8117 310.746 95.0013L311.141 95.9197C304.546 98.7596 297.653 100.853 290.591 102.162L290.409 101.178ZM354.406 67.4244C354.528 66.8265 354.666 66.2318 354.82 65.641L355.788 65.8936C355.638 66.4669 355.504 67.0439 355.386 67.6241L354.406 67.4244ZM354.814 65.6695L354.87 65.3867L355.851 65.5823L355.795 65.8651L354.814 65.6695ZM354.806 65.5129C354.836 65.4127 354.878 65.318 354.93 65.2302L355.791 65.7388C355.779 65.7592 355.769 65.7814 355.762 65.8052L354.806 65.5129ZM354.403 67.4397C354.511 66.8098 354.637 66.1755 354.799 65.5362L355.768 65.7819C355.615 66.3882 355.494 66.9953 355.389 67.6087L354.403 67.4397ZM353.894 70.8036C354.008 69.6689 354.179 68.5411 354.406 67.4244L355.386 67.6241C355.165 68.7077 354.999 69.8021 354.889 70.9032L353.894 70.8036ZM354.477 71.3464L354.459 71.3489L354.324 70.358L354.343 70.3554L354.477 71.3464ZM353.911 70.8692C353.904 70.6815 353.921 70.4904 353.966 70.3001L354.94 70.5284C354.916 70.631 354.906 70.733 354.91 70.8325L353.911 70.8692ZM353.959 70.3362C354.021 69.9466 354.078 69.5587 354.135 69.1693L355.124 69.3148C355.067 69.7033 355.009 70.0965 354.947 70.4923L353.959 70.3362ZM354.135 69.1693C354.219 68.5952 354.304 68.0175 354.403 67.4397L355.389 67.6087C355.292 68.1728 355.209 68.7387 355.124 69.3148L354.135 69.1693Z" fill="black"/>
<rect x="73" y="169" width="289" height="6" rx="3" fill="#F4E4FF" stroke="black"/>
<rect x="73" y="169" width="113" height="6" rx="3" fill="#B550F8" stroke="black"/>
</g>
<defs>
<filter id="filter0_d_0_304" x="44.5" y="24.5" width="347" height="185" filterUnits="userSpaceOnUse" color-interpolation-filters="sRGB">
<feFlood flood-opacity="0" result="BackgroundImageFix"/>
<feColorMatrix in="SourceAlpha" type="matrix" values="0 0 0 0 0 0 0 0 0 0 0 0 0 0 0 0 0 0 127 0" result="hardAlpha"/>
<feOffset dy="4"/>
<feGaussianBlur stdDeviation="2"/>
<feComposite in2="hardAlpha" operator="out"/>
<feColorMatrix type="matrix" values="0 0 0 0 0 0 0 0 0 0 0 0 0 0 0 0 0 0 0.25 0"/>
<feBlend mode="normal" in2="BackgroundImageFix" result="effect1_dropShadow_0_304"/>
<feBlend mode="normal" in="SourceGraphic" in2="effect1_dropShadow_0_304" result="shape"/>
</filter>
<filter id="filter1_d_0_304" x="0.5" y="0.5" width="435" height="273" filterUnits="userSpaceOnUse" color-interpolation-filters="sRGB">
<feFlood flood-opacity="0" result="BackgroundImageFix"/>
<feColorMatrix in="SourceAlpha" type="matrix" values="0 0 0 0 0 0 0 0 0 0 0 0 0 0 0 0 0 0 127 0" result="hardAlpha"/>
<feOffset dy="24"/>
<feGaussianBlur stdDeviation="24"/>
<feColorMatrix type="matrix" values="0 0 0 0 0.333333 0 0 0 0 0.117647 0 0 0 0 0 0 0 0 0.04 0"/>
<feBlend mode="normal" in2="BackgroundImageFix" result="effect1_dropShadow_0_304"/>
<feBlend mode="normal" in="SourceGraphic" in2="effect1_dropShadow_0_304" result="shape"/>
</filter>
</defs>
</svg>
