<svg width="18" height="16" viewBox="0 0 18 16" fill="none" xmlns="http://www.w3.org/2000/svg">
<path d="M9.87371 1.7523L9.8736 1.75242L9.18103 2.4774L9.00026 2.66664L8.81948 2.4774L8.12692 1.75242L8.12664 1.75212C6.44256 -0.0166272 3.72496 -0.287089 1.91129 1.28303C-0.186675 3.10223 -0.298354 6.37297 1.58057 8.34638L9.87371 1.7523ZM9.87371 1.7523C11.5614 -0.016727 14.2755 -0.286989 16.0891 1.28291C18.1872 3.10209 18.2989 6.37291 16.4165 8.34633L16.4164 8.34638L9.61387 15.4819C9.61386 15.4819 9.61384 15.4819 9.61383 15.482C9.27289 15.8393 8.72411 15.8393 8.38317 15.482C8.38316 15.4819 8.38314 15.4819 8.38313 15.4819L1.58068 8.34649L9.87371 1.7523Z" stroke="black" stroke-width="0.5"/>
</svg>
